<svg 
 xmlns="http://www.w3.org/2000/svg"
 xmlns:xlink="http://www.w3.org/1999/xlink"
 width="155px" height="39px">
<defs>
<filter id="Filter_0">
    <feFlood flood-color="rgb(62, 70, 73)" flood-opacity="1" result="floodOut" />
    <feComposite operator="atop" in="floodOut" in2="SourceGraphic" result="compOut" />
    <feBlend mode="normal" in="compOut" in2="SourceGraphic" />
</filter>

</defs>
<g filter="url(#Filter_0)">
<path fill-rule="evenodd"  fill="rgb(28, 37, 40)"
 d="M154.215,27.147 C154.046,27.314 153.830,27.398 153.566,27.398 L142.042,27.398 C142.042,27.422 142.042,27.458 142.042,27.506 C142.042,27.553 142.042,27.601 142.042,27.649 C142.066,28.343 142.192,28.976 142.420,29.550 C142.648,30.124 142.984,30.579 143.429,30.914 C143.873,31.250 144.419,31.417 145.067,31.417 C145.547,31.417 145.950,31.339 146.274,31.183 C146.598,31.028 146.868,30.848 147.084,30.645 C147.300,30.442 147.468,30.268 147.588,30.124 C147.804,29.862 147.978,29.700 148.110,29.640 C148.242,29.581 148.453,29.550 148.741,29.550 L153.206,29.550 C153.446,29.550 153.644,29.623 153.801,29.766 C153.956,29.910 154.022,30.102 153.999,30.340 C153.974,30.747 153.770,31.237 153.386,31.812 C153.002,32.386 152.444,32.954 151.712,33.516 C150.979,34.077 150.061,34.538 148.957,34.897 C147.852,35.255 146.567,35.435 145.103,35.435 C142.270,35.435 140.013,34.670 138.333,33.139 C136.652,31.608 135.776,29.336 135.704,26.321 C135.704,26.154 135.704,25.939 135.704,25.676 C135.704,25.412 135.704,25.209 135.704,25.065 C135.776,23.176 136.202,21.556 136.982,20.204 C137.762,18.853 138.842,17.824 140.223,17.118 C141.604,16.413 143.218,16.060 145.067,16.060 C147.180,16.060 148.926,16.478 150.307,17.316 C151.688,18.153 152.726,19.289 153.423,20.724 C154.119,22.159 154.467,23.798 154.467,25.639 L154.467,26.501 C154.467,26.765 154.382,26.979 154.215,27.147 ZM148.128,23.774 C148.128,22.984 148.014,22.309 147.786,21.746 C147.558,21.185 147.210,20.748 146.742,20.437 C146.274,20.126 145.715,19.971 145.067,19.971 C144.443,19.971 143.902,20.126 143.447,20.437 C142.990,20.748 142.642,21.185 142.402,21.746 C142.162,22.309 142.042,22.984 142.042,23.774 L142.042,23.845 L148.128,23.845 L148.128,23.774 ZM131.310,35.076 L127.060,35.076 C126.796,35.076 126.580,34.986 126.412,34.807 C126.244,34.628 126.160,34.419 126.160,34.179 L126.160,10.499 C126.160,10.236 126.244,10.020 126.412,9.852 C126.580,9.685 126.796,9.601 127.060,9.601 L131.310,9.601 C131.574,9.601 131.790,9.685 131.958,9.852 C132.126,10.020 132.211,10.236 132.211,10.499 L132.211,34.179 C132.211,34.419 132.126,34.628 131.958,34.807 C131.790,34.986 131.574,35.076 131.310,35.076 ZM111.431,29.910 C111.935,30.508 112.667,30.806 113.628,30.806 C114.371,30.806 114.960,30.645 115.392,30.322 C115.824,30.000 116.172,29.479 116.437,28.762 C116.556,28.522 116.689,28.343 116.833,28.223 C116.977,28.104 117.180,28.044 117.445,28.044 L122.019,28.044 C122.258,28.044 122.474,28.127 122.667,28.295 C122.859,28.462 122.943,28.678 122.919,28.941 C122.895,29.323 122.775,29.790 122.559,30.340 C122.343,30.890 122.006,31.464 121.551,32.062 C121.094,32.660 120.500,33.211 119.768,33.713 C119.035,34.215 118.153,34.628 117.121,34.951 C116.088,35.273 114.888,35.435 113.519,35.435 C111.742,35.435 110.170,35.112 108.802,34.467 C107.433,33.820 106.347,32.882 105.542,31.649 C104.738,30.418 104.300,28.941 104.228,27.219 C104.204,26.836 104.192,26.352 104.192,25.765 C104.192,25.180 104.204,24.695 104.228,24.312 C104.300,22.567 104.732,21.077 105.524,19.845 C106.317,18.614 107.403,17.674 108.784,17.029 C110.164,16.383 111.742,16.060 113.519,16.060 C115.176,16.060 116.599,16.293 117.787,16.760 C118.976,17.226 119.936,17.806 120.668,18.500 C121.400,19.193 121.952,19.905 122.325,20.634 C122.697,21.364 122.895,22.004 122.919,22.554 C122.943,22.794 122.859,23.002 122.667,23.182 C122.474,23.361 122.258,23.451 122.019,23.451 L117.445,23.451 C117.180,23.451 116.977,23.392 116.833,23.271 C116.689,23.152 116.556,22.973 116.437,22.733 C116.149,21.992 115.782,21.466 115.338,21.155 C114.894,20.844 114.324,20.688 113.628,20.688 C112.667,20.688 111.929,21.000 111.413,21.622 C110.896,22.243 110.614,23.200 110.566,24.492 C110.542,25.449 110.542,26.298 110.566,27.039 C110.638,28.354 110.926,29.312 111.431,29.910 ZM101.599,21.909 L98.106,21.909 C97.121,21.909 96.359,22.178 95.819,22.715 C95.279,23.254 95.008,24.013 95.008,24.994 L95.008,34.179 C95.008,34.419 94.918,34.628 94.738,34.807 C94.558,34.986 94.336,35.076 94.072,35.076 L89.606,35.076 C89.342,35.076 89.126,34.986 88.958,34.807 C88.790,34.628 88.706,34.419 88.706,34.179 L88.706,17.316 C88.706,17.077 88.790,16.867 88.958,16.688 C89.126,16.508 89.342,16.418 89.606,16.418 L93.748,16.418 C94.012,16.418 94.234,16.508 94.414,16.688 C94.594,16.867 94.684,17.077 94.684,17.316 L94.684,18.751 C95.308,18.010 96.071,17.436 96.971,17.029 C97.872,16.622 98.886,16.418 100.014,16.418 L101.599,16.418 C101.863,16.418 102.079,16.503 102.247,16.670 C102.415,16.838 102.499,17.052 102.499,17.316 L102.499,21.011 C102.499,21.251 102.415,21.459 102.247,21.640 C102.079,21.819 101.863,21.909 101.599,21.909 ZM83.592,13.728 L79.271,13.728 C79.006,13.728 78.790,13.644 78.622,13.476 C78.454,13.309 78.370,13.094 78.370,12.831 L78.370,9.601 C78.370,9.363 78.454,9.153 78.622,8.974 C78.790,8.795 79.006,8.704 79.271,8.704 L83.592,8.704 C83.832,8.704 84.042,8.795 84.222,8.974 C84.403,9.153 84.493,9.363 84.493,9.601 L84.493,12.831 C84.493,13.094 84.403,13.309 84.222,13.476 C84.042,13.644 83.832,13.728 83.592,13.728 ZM60.688,29.174 C61.456,29.904 62.500,30.268 63.821,30.268 C64.925,30.268 65.861,30.029 66.630,29.550 C67.398,29.073 67.938,28.211 68.251,26.968 C68.346,26.608 68.485,26.363 68.665,26.232 C68.845,26.101 69.091,26.034 69.403,26.034 L74.265,26.034 C74.481,26.034 74.667,26.107 74.823,26.250 C74.979,26.394 75.045,26.573 75.021,26.788 C74.997,28.127 74.703,29.330 74.139,30.393 C73.574,31.459 72.788,32.368 71.780,33.121 C70.772,33.874 69.595,34.448 68.251,34.843 C66.906,35.238 65.441,35.435 63.857,35.435 C61.600,35.435 59.655,35.065 58.023,34.323 C56.390,33.582 55.123,32.492 54.223,31.058 C53.323,29.623 52.824,27.840 52.729,25.712 C52.704,24.731 52.693,23.679 52.693,22.554 C52.693,21.430 52.704,20.354 52.729,19.325 C52.824,17.244 53.328,15.474 54.241,14.015 C55.153,12.556 56.426,11.455 58.059,10.713 C59.691,9.972 61.624,9.601 63.857,9.601 C65.441,9.601 66.906,9.799 68.251,10.194 C69.595,10.588 70.772,11.163 71.780,11.916 C72.788,12.669 73.574,13.578 74.139,14.643 C74.703,15.707 74.997,16.909 75.021,18.248 C75.045,18.464 74.979,18.643 74.823,18.786 C74.667,18.930 74.481,19.002 74.265,19.002 L69.403,19.002 C69.091,19.002 68.850,18.936 68.683,18.804 C68.514,18.674 68.370,18.428 68.251,18.069 C67.914,16.802 67.368,15.934 66.612,15.467 C65.856,15.001 64.925,14.768 63.821,14.768 C62.500,14.768 61.456,15.133 60.688,15.862 C59.919,16.593 59.499,17.806 59.427,19.504 C59.355,21.466 59.355,23.475 59.427,25.533 C59.499,27.231 59.919,28.445 60.688,29.174 ZM79.307,16.418 L83.556,16.418 C83.820,16.418 84.036,16.503 84.205,16.670 C84.372,16.838 84.457,17.052 84.457,17.316 L84.457,34.179 C84.457,34.419 84.372,34.628 84.205,34.807 C84.036,34.986 83.820,35.076 83.556,35.076 L79.307,35.076 C79.042,35.076 78.826,34.986 78.658,34.807 C78.490,34.628 78.406,34.419 78.406,34.179 L78.406,17.316 C78.406,17.052 78.490,16.838 78.658,16.670 C78.826,16.503 79.042,16.418 79.307,16.418 Z"/>
<path fill-rule="evenodd"  fill="rgb(28, 37, 40)"
 d="M124.123,9.982 C124.058,10.048 123.973,10.080 123.870,10.080 L119.374,10.080 C119.374,10.090 119.374,10.104 119.374,10.122 C119.374,10.141 119.374,10.159 119.374,10.178 C119.383,10.449 119.432,10.696 119.521,10.920 C119.610,11.144 119.741,11.322 119.915,11.452 C120.088,11.583 120.301,11.648 120.554,11.648 C120.741,11.648 120.898,11.618 121.025,11.557 C121.151,11.496 121.257,11.427 121.341,11.348 C121.425,11.268 121.491,11.200 121.538,11.144 C121.622,11.041 121.690,10.979 121.741,10.956 C121.793,10.932 121.875,10.920 121.987,10.920 L123.730,10.920 C123.823,10.920 123.901,10.948 123.962,11.004 C124.023,11.061 124.048,11.135 124.039,11.228 C124.029,11.387 123.950,11.578 123.800,11.802 C123.650,12.027 123.432,12.248 123.147,12.467 C122.861,12.687 122.502,12.866 122.072,13.006 C121.641,13.146 121.139,13.216 120.568,13.216 C119.463,13.216 118.582,12.917 117.926,12.320 C117.270,11.723 116.929,10.836 116.900,9.661 C116.900,9.595 116.900,9.511 116.900,9.408 C116.900,9.306 116.900,9.227 116.900,9.170 C116.929,8.433 117.095,7.801 117.399,7.273 C117.704,6.746 118.125,6.345 118.664,6.069 C119.203,5.794 119.832,5.656 120.554,5.656 C121.378,5.656 122.060,5.820 122.599,6.146 C123.137,6.473 123.542,6.916 123.814,7.477 C124.086,8.036 124.222,8.675 124.222,9.394 L124.222,9.730 C124.222,9.833 124.189,9.917 124.123,9.982 ZM121.748,8.666 C121.748,8.358 121.704,8.095 121.615,7.875 C121.526,7.656 121.390,7.485 121.207,7.364 C121.025,7.243 120.807,7.182 120.554,7.182 C120.310,7.182 120.099,7.243 119.922,7.364 C119.744,7.485 119.608,7.656 119.514,7.875 C119.420,8.095 119.374,8.358 119.374,8.666 L119.374,8.694 L121.748,8.694 L121.748,8.666 ZM115.523,10.080 L111.027,10.080 C111.027,10.090 111.027,10.104 111.027,10.122 C111.027,10.141 111.027,10.159 111.027,10.178 C111.036,10.449 111.085,10.696 111.174,10.920 C111.263,11.144 111.394,11.322 111.568,11.452 C111.741,11.583 111.954,11.648 112.207,11.648 C112.394,11.648 112.551,11.618 112.678,11.557 C112.804,11.496 112.910,11.427 112.994,11.348 C113.078,11.268 113.144,11.200 113.191,11.144 C113.275,11.041 113.343,10.979 113.395,10.956 C113.446,10.932 113.528,10.920 113.640,10.920 L115.383,10.920 C115.476,10.920 115.554,10.948 115.615,11.004 C115.676,11.061 115.701,11.135 115.692,11.228 C115.683,11.387 115.603,11.578 115.453,11.802 C115.303,12.027 115.085,12.248 114.800,12.467 C114.514,12.687 114.156,12.866 113.725,13.006 C113.294,13.146 112.792,13.216 112.221,13.216 C111.116,13.216 110.235,12.917 109.579,12.320 C108.924,11.723 108.582,10.836 108.554,9.661 C108.554,9.595 108.554,9.511 108.554,9.408 C108.554,9.306 108.554,9.227 108.554,9.170 C108.582,8.433 108.748,7.801 109.052,7.273 C109.357,6.746 109.778,6.345 110.317,6.069 C110.856,5.794 111.486,5.656 112.207,5.656 C113.031,5.656 113.713,5.820 114.252,6.146 C114.790,6.473 115.195,6.916 115.467,7.477 C115.739,8.036 115.875,8.675 115.875,9.394 L115.875,9.730 C115.875,9.833 115.842,9.917 115.776,9.982 C115.711,10.048 115.626,10.080 115.523,10.080 ZM113.401,8.666 C113.401,8.358 113.357,8.095 113.268,7.875 C113.179,7.656 113.043,7.485 112.861,7.364 C112.678,7.243 112.460,7.182 112.207,7.182 C111.963,7.182 111.753,7.243 111.575,7.364 C111.397,7.485 111.261,7.656 111.167,7.875 C111.074,8.095 111.027,8.358 111.027,8.666 L111.027,8.694 L113.401,8.694 L113.401,8.666 ZM107.556,7.938 L106.193,7.938 C105.809,7.938 105.511,8.043 105.300,8.253 C105.090,8.464 104.984,8.759 104.984,9.143 L104.984,12.727 C104.984,12.820 104.949,12.901 104.879,12.972 C104.809,13.041 104.722,13.077 104.619,13.077 L102.876,13.077 C102.773,13.077 102.689,13.041 102.624,12.972 C102.558,12.901 102.525,12.820 102.525,12.727 L102.525,6.146 C102.525,6.053 102.558,5.971 102.624,5.901 C102.689,5.832 102.773,5.796 102.876,5.796 L104.492,5.796 C104.595,5.796 104.682,5.832 104.752,5.901 C104.823,5.971 104.858,6.053 104.858,6.146 L104.858,6.706 C105.101,6.417 105.399,6.193 105.750,6.035 C106.101,5.875 106.497,5.796 106.938,5.796 L107.556,5.796 C107.659,5.796 107.743,5.829 107.809,5.894 C107.874,5.959 107.907,6.043 107.907,6.146 L107.907,7.588 C107.907,7.682 107.874,7.764 107.809,7.833 C107.743,7.903 107.659,7.938 107.556,7.938 ZM100.586,13.077 L98.773,13.077 C98.680,13.077 98.598,13.041 98.527,12.972 C98.457,12.901 98.422,12.820 98.422,12.727 L98.422,8.904 C98.422,8.466 98.317,8.127 98.106,7.890 C97.895,7.651 97.588,7.532 97.185,7.532 C96.792,7.532 96.478,7.651 96.244,7.890 C96.010,8.127 95.893,8.466 95.893,8.904 L95.893,12.727 C95.893,12.820 95.860,12.901 95.794,12.972 C95.729,13.041 95.644,13.077 95.541,13.077 L93.743,13.077 C93.639,13.077 93.555,13.041 93.490,12.972 C93.424,12.901 93.391,12.820 93.391,12.727 L93.391,3.486 C93.391,3.383 93.424,3.300 93.490,3.235 C93.555,3.169 93.639,3.136 93.743,3.136 L95.541,3.136 C95.644,3.136 95.729,3.169 95.794,3.235 C95.860,3.300 95.893,3.383 95.893,3.486 L95.893,6.608 C96.146,6.319 96.457,6.088 96.827,5.915 C97.197,5.743 97.626,5.656 98.113,5.656 C98.656,5.656 99.141,5.777 99.567,6.020 C99.993,6.263 100.328,6.617 100.572,7.085 C100.815,7.551 100.937,8.130 100.937,8.820 L100.937,12.727 C100.937,12.820 100.904,12.901 100.839,12.972 C100.773,13.041 100.689,13.077 100.586,13.077 ZM91.874,13.077 L90.567,13.077 C89.967,13.077 89.450,12.980 89.014,12.790 C88.579,12.598 88.243,12.299 88.009,11.893 C87.775,11.487 87.658,10.962 87.658,10.319 L87.658,7.630 L86.562,7.630 C86.459,7.630 86.372,7.598 86.302,7.532 C86.232,7.467 86.197,7.383 86.197,7.280 L86.197,6.146 C86.197,6.043 86.232,5.959 86.302,5.894 C86.372,5.829 86.459,5.796 86.562,5.796 L87.658,5.796 L87.658,3.486 C87.658,3.383 87.693,3.300 87.764,3.235 C87.834,3.169 87.916,3.136 88.009,3.136 L89.639,3.136 C89.742,3.136 89.827,3.169 89.892,3.235 C89.958,3.300 89.991,3.383 89.991,3.486 L89.991,5.796 L91.747,5.796 C91.850,5.796 91.937,5.829 92.007,5.894 C92.077,5.959 92.113,6.043 92.113,6.146 L92.113,7.280 C92.113,7.383 92.077,7.467 92.007,7.532 C91.937,7.598 91.850,7.630 91.747,7.630 L89.991,7.630 L89.991,10.122 C89.991,10.440 90.052,10.691 90.173,10.878 C90.295,11.065 90.501,11.158 90.792,11.158 L91.874,11.158 C91.977,11.158 92.061,11.191 92.127,11.256 C92.192,11.322 92.225,11.406 92.225,11.508 L92.225,12.727 C92.225,12.820 92.192,12.901 92.127,12.972 C92.061,13.041 91.977,13.077 91.874,13.077 Z"/>
<path fill-rule="evenodd"  fill="rgb(0, 0, 0)"
 d="M19.500,38.999 C8.726,38.999 0.000,30.273 0.000,19.500 C0.000,8.725 8.726,-0.001 19.500,-0.001 C30.274,-0.001 39.000,8.725 39.000,19.500 C39.000,30.273 30.274,38.999 19.500,38.999 ZM19.500,3.898 C10.881,3.898 3.900,10.879 3.900,19.500 C3.900,28.118 10.881,35.099 19.500,35.099 C28.119,35.099 35.100,28.118 35.100,19.500 C35.100,10.879 28.119,3.898 19.500,3.898 ZM19.500,29.249 C14.118,29.249 9.750,24.881 9.750,19.500 C9.750,14.117 14.118,9.749 19.500,9.749 C24.882,9.749 29.250,14.117 29.250,19.500 C29.250,24.881 24.882,29.249 19.500,29.249 Z"/>
</g>
</svg>