<svg 
 xmlns="http://www.w3.org/2000/svg"
 xmlns:xlink="http://www.w3.org/1999/xlink"
 width="149px" height="37px">
<defs>
<filter id="Filter_0">
    <feFlood flood-color="rgb(62, 70, 73)" flood-opacity="1" result="floodOut" />
    <feComposite operator="atop" in="floodOut" in2="SourceGraphic" result="compOut" />
    <feBlend mode="normal" in="compOut" in2="SourceGraphic" />
</filter>
<filter id="Filter_1">
    <feFlood flood-color="rgb(62, 70, 73)" flood-opacity="1" result="floodOut" />
    <feComposite operator="atop" in="floodOut" in2="SourceGraphic" result="compOut" />
    <feBlend mode="normal" in="compOut" in2="SourceGraphic" />
</filter>

</defs>
<g filter="url(#Filter_0)">
<text kerning="auto" font-family="Myriad Pro" fill="rgb(0, 0, 0)" transform="matrix( 1.48842572321623, 0, 0, 1.4728063562499,5.17423779061801, 29.2993348492564)" font-size="27.283px"><tspan font-size="27.283px" font-family="PlayfairDisplay" font-weight="bold" fill="#1C2528">seven</tspan></text>
</g>
<g filter="url(#Filter_1)">
<path fill-rule="evenodd"  fill="rgb(140, 150, 153)"
 d="M131.000,36.974 L131.000,36.999 L112.000,36.999 L112.000,16.998 L112.076,16.998 C112.842,7.485 120.789,-0.001 130.500,-0.001 C140.717,-0.001 149.000,8.282 149.000,18.500 C149.000,28.547 140.984,36.706 131.000,36.974 Z"/>
</g>
<path fill-rule="evenodd"  fill="rgb(255, 255, 255)"
 d="M124.783,11.441 C124.803,12.211 124.813,13.256 124.813,14.576 L125.445,14.576 C125.525,14.076 125.676,13.726 125.897,13.526 C126.118,13.327 126.639,13.227 127.463,13.227 L135.713,13.227 L136.406,11.846 C135.884,12.667 135.267,13.537 134.554,14.456 C133.841,15.376 133.113,16.337 132.371,17.336 C131.628,18.336 130.936,19.362 130.293,20.412 C129.651,21.462 129.129,22.526 128.727,23.606 C128.326,24.686 128.125,25.776 128.125,26.877 C128.125,27.636 128.306,28.266 128.667,28.766 C129.029,29.266 129.581,29.516 130.323,29.516 C131.066,29.516 131.618,29.291 131.980,28.841 C132.341,28.391 132.522,27.886 132.522,27.326 C132.522,27.126 132.511,26.861 132.491,26.531 C132.471,26.201 132.446,25.876 132.416,25.556 C132.386,25.236 132.371,25.016 132.371,24.896 C132.371,23.277 132.567,21.772 132.958,20.381 C133.350,18.992 133.841,17.692 134.434,16.482 C135.026,15.271 135.618,14.152 136.210,13.121 C136.802,12.092 137.289,11.126 137.671,10.226 L137.671,9.596 L129.179,9.596 C128.276,9.596 127.373,9.587 126.469,9.566 C125.566,9.546 124.973,9.506 124.693,9.446 C124.732,10.006 124.763,10.672 124.783,11.441 Z"/>
</svg>