<svg 
 xmlns="http://www.w3.org/2000/svg"
 xmlns:xlink="http://www.w3.org/1999/xlink"
 width="91px" height="32px">
<defs>
<filter id="Filter_0">
    <feFlood flood-color="rgb(62, 70, 73)" flood-opacity="1" result="floodOut" />
    <feComposite operator="atop" in="floodOut" in2="SourceGraphic" result="compOut" />
    <feBlend mode="normal" in="compOut" in2="SourceGraphic" />
</filter>

</defs>
<g filter="url(#Filter_0)">
<path fill-rule="evenodd"  fill="rgb(28, 37, 40)"
 d="M81.182,31.615 C77.040,31.615 72.143,27.991 72.143,19.559 C72.143,13.782 74.916,7.576 81.182,7.576 C87.448,7.576 90.221,13.782 90.221,19.559 C90.221,27.991 85.323,31.615 81.182,31.615 ZM81.182,11.809 C77.617,11.809 76.608,15.828 76.608,18.662 C76.608,21.533 77.545,25.623 81.182,25.623 C84.819,25.623 85.756,21.533 85.756,18.662 C85.756,15.828 84.747,11.809 81.182,11.809 ZM68.253,15.110 C67.821,15.110 68.325,12.706 65.840,12.706 C62.815,12.706 62.599,17.550 62.599,19.702 C62.599,26.843 63.823,29.856 63.823,30.502 C63.787,31.076 62.995,31.076 62.599,31.076 L59.718,31.076 C58.385,31.076 57.737,32.189 57.737,20.313 C57.737,10.374 57.449,8.150 58.458,8.113 L61.447,8.113 C61.987,8.113 62.635,7.934 62.671,8.616 C62.743,9.154 62.815,9.836 63.535,9.836 C64.076,9.836 64.688,9.262 65.444,8.687 C66.200,8.150 67.065,7.576 68.037,7.576 C69.874,7.576 71.386,9.154 71.386,11.092 C71.386,13.603 69.333,15.110 68.253,15.110 ZM47.798,26.771 C53.704,26.771 53.704,22.286 54.208,22.286 C54.748,22.286 54.856,24.151 54.856,24.438 C54.856,28.995 51.327,31.615 47.005,31.615 C40.559,31.615 37.894,26.305 37.894,20.564 C37.894,11.881 42.720,7.576 47.545,7.576 C51.507,7.576 54.856,9.799 54.856,14.034 C54.856,21.748 43.260,20.133 43.260,23.864 C43.260,25.551 45.997,26.771 47.798,26.771 ZM43.404,17.801 C43.836,17.801 50.390,16.366 50.390,14.536 C50.390,12.778 48.734,11.809 47.365,11.809 C44.448,11.809 42.756,14.930 42.756,17.011 C42.756,17.406 42.936,17.801 43.404,17.801 ZM27.018,31.076 L20.643,31.076 C19.383,31.076 19.527,19.057 19.527,18.232 C19.527,16.545 19.383,0.472 21.004,0.472 L24.461,0.472 C24.893,0.472 25.757,0.472 25.757,1.260 C25.757,1.547 24.677,5.136 24.677,7.252 C24.677,7.826 24.785,8.400 25.469,8.400 C25.865,8.400 26.369,8.221 26.946,8.006 C27.558,7.826 28.278,7.576 29.034,7.576 C32.096,7.576 36.381,10.302 36.381,17.872 C36.381,21.999 35.337,25.300 32.708,28.278 C31.663,29.498 29.755,31.076 27.018,31.076 ZM27.450,10.984 C24.893,10.984 24.389,12.240 24.389,17.478 C24.389,25.228 26.225,25.084 27.162,25.084 C30.691,25.084 31.519,20.958 31.519,18.303 C31.519,12.419 28.962,10.984 27.450,10.984 ZM14.269,31.076 L11.820,31.076 C10.056,31.076 9.912,31.829 9.912,19.200 C9.912,6.930 10.488,8.113 11.676,8.113 L13.657,8.113 C15.170,8.113 15.206,8.221 15.206,8.652 C15.206,9.980 14.773,11.307 14.773,15.217 C14.773,24.259 16.178,29.821 16.178,30.143 C16.178,31.291 15.098,31.076 14.269,31.076 ZM13.081,5.315 C11.640,5.315 10.308,4.489 10.308,2.947 C10.308,1.404 11.640,0.472 13.081,0.472 C14.521,0.472 15.854,1.404 15.854,2.947 C15.854,4.489 14.521,5.315 13.081,5.315 ZM7.211,30.646 C7.211,31.255 6.275,31.076 5.878,31.076 L2.097,31.076 C0.837,31.076 0.981,19.057 0.981,18.232 C0.981,16.545 0.837,0.472 2.457,0.472 L5.878,0.472 C6.275,0.472 7.355,0.364 7.355,1.153 C7.355,1.368 5.842,6.535 5.842,15.469 C5.842,25.336 7.211,30.179 7.211,30.646 Z"/>
</g>
</svg>