<svg xmlns="http://www.w3.org/2000/svg"
	xmlns:xlink="http://www.w3.org/1999/xlink" width="28px" height="29px">
	<path fill-rule="evenodd" fill="rgb(255, 255, 255)" d="M27.175,26.003 L20.472,19.072 C22.196,17.035 23.140,14.473 23.140,11.805 C23.140,5.571 18.039,0.500 11.769,0.500 C5.499,0.500 0.397,5.571 0.397,11.805 C0.397,18.038 5.499,23.109 11.769,23.109 C14.123,23.109 16.366,22.403 18.283,21.064 L25.038,28.047 C25.320,28.338 25.700,28.499 26.106,28.499 C26.492,28.499 26.857,28.354 27.134,28.088 C27.724,27.524 27.742,26.590 27.175,26.003 ZM11.769,3.449 C16.403,3.449 20.174,7.197 20.174,11.805 C20.174,16.412 16.403,20.160 11.769,20.160 C7.134,20.160 3.364,16.412 3.364,11.805 C3.364,7.197 7.134,3.449 11.769,3.449 Z"/>
</svg>