<svg 
 xmlns="http://www.w3.org/2000/svg"
 xmlns:xlink="http://www.w3.org/1999/xlink"
 width="190px" height="189px">
<path fill-rule="evenodd"  fill="rgb(23, 44, 112)"
 d="M58.100,74.599 C74.523,74.599 58.089,74.599 115.300,74.599 C115.300,94.470 115.300,116.631 115.300,131.799 C115.300,163.389 89.691,188.999 58.100,188.999 C26.509,188.999 0.900,163.389 0.900,131.799 C0.900,100.208 26.509,74.599 58.100,74.599 Z"/>
<path fill-rule="evenodd"  fill="rgb(85, 190, 218)"
 d="M132.500,114.599 C116.077,114.599 132.511,114.599 75.300,114.599 C75.300,94.727 75.300,72.566 75.300,57.399 C75.300,25.807 100.909,0.199 132.500,0.199 C164.091,0.199 189.700,25.807 189.700,57.399 C189.700,88.989 164.091,114.599 132.500,114.599 Z"/>
</svg>