<svg 
 xmlns="http://www.w3.org/2000/svg"
 xmlns:xlink="http://www.w3.org/1999/xlink"
 width="330px" height="431px">
<path fill-rule="evenodd"  fill="rgb(255, 128, 89)"
 d="M128.917,121.619 C168.976,121.619 201.451,154.100 201.451,194.168 C201.451,234.235 168.976,266.715 128.917,266.715 "/>
<path fill-rule="evenodd"  fill="rgb(185, 209, 228)"
 d="M273.904,279.191 C273.904,319.403 241.491,351.999 201.506,351.999 C161.522,351.999 129.108,319.403 129.108,279.191 "/>
<path fill-rule="evenodd"  fill="rgb(85, 190, 218)"
 d="M1.100,430.399 L1.100,310.399 C1.100,279.471 26.172,254.399 57.100,254.399 C88.028,254.399 113.100,279.471 113.100,310.399 L113.100,430.399 "/>
<path fill-rule="evenodd"  fill="rgb(23, 44, 112)"
 d="M217.900,-0.001 L329.100,-0.001 L329.100,263.199 L217.900,263.199 L217.900,-0.001 Z"/>
<path fill-rule="evenodd"  fill="rgb(228, 196, 168)"
 d="M57.500,123.999 C89.091,123.999 114.700,149.608 114.700,181.199 C114.700,212.790 89.091,238.399 57.500,238.399 C25.909,238.399 0.300,212.790 0.300,181.199 C0.300,149.608 25.909,123.999 57.500,123.999 Z"/>
</svg>