<svg 
 xmlns="http://www.w3.org/2000/svg"
 xmlns:xlink="http://www.w3.org/1999/xlink"
 width="945px" height="516px">
<path fill-rule="evenodd"  fill="rgb(185, 209, 228)"
 d="M529.000,507.000 C529.000,392.252 622.381,298.745 737.165,298.745 C851.949,298.745 945.000,392.252 945.000,507.000 "/>
<path fill-rule="evenodd"  fill="rgb(255, 128, 89)"
 d="M868.000,141.000 C868.000,347.786 700.459,515.514 493.608,515.514 C286.758,515.514 119.000,347.786 119.000,141.000 "/>
<path fill-rule="evenodd"  fill="rgb(85, 190, 218)"
 d="M-0.000,507.000 C-0.000,392.252 93.051,298.745 207.835,298.745 C322.619,298.745 416.000,392.252 416.000,507.000 "/>
<path fill-rule="evenodd"  fill="rgb(23, 44, 112)"
 d="M738.000,0.000 C804.624,0.000 858.402,54.096 858.402,120.733 C858.402,187.371 804.624,241.000 738.000,241.000 "/>
<path fill-rule="evenodd"  fill="rgb(228, 196, 168)"
 d="M820.000,94.000 C820.000,158.151 768.376,210.580 704.238,210.580 C640.100,210.580 588.000,158.151 588.000,94.000 "/>
</svg>