<svg xmlns="http://www.w3.org/2000/svg"
	xmlns:xlink="http://www.w3.org/1999/xlink" width="274px" height="310px">
	<path fill-rule="evenodd" fill="rgb(255, 128, 89)" d="M128.817,0.593 C168.876,0.593 201.351,33.077 201.351,73.147 C201.351,113.217 168.876,145.700 128.817,145.700 "/>
	<path fill-rule="evenodd" fill="rgb(185, 209, 228)" d="M273.804,158.178 C273.804,198.393 241.391,230.992 201.406,230.992 C161.422,230.992 129.008,198.393 129.008,158.178 "/>
	<path fill-rule="evenodd" fill="rgb(85, 190, 218)" d="M1.000,309.397 L1.000,189.387 C1.000,158.458 26.072,133.383 57.000,133.383 C87.928,133.383 113.000,158.458 113.000,189.387 L113.000,309.397 "/>
	<path fill-rule="evenodd" fill="rgb(228, 196, 168)" d="M57.400,2.972 C88.991,2.972 114.600,28.583 114.600,60.177 C114.600,91.770 88.991,117.382 57.400,117.382 C25.809,117.382 0.200,91.770 0.200,60.177 C0.200,28.583 25.809,2.972 57.400,2.972 Z"/>
</svg>