<svg 
 xmlns="http://www.w3.org/2000/svg"
 xmlns:xlink="http://www.w3.org/1999/xlink"
 width="274px" height="310px">
<path fill-rule="evenodd"  fill="rgb(255, 128, 89)"
 d="M145.183,0.594 C105.124,0.594 72.649,33.078 72.649,73.148 C72.649,113.219 105.124,145.701 145.183,145.701 "/>
<path fill-rule="evenodd"  fill="rgb(85, 190, 218)"
 d="M0.196,158.179 C0.196,198.393 32.609,230.993 72.593,230.993 C112.578,230.993 144.992,198.393 144.992,158.179 "/>
<path fill-rule="evenodd"  fill="rgb(185, 209, 228)"
 d="M273.000,309.399 L273.000,189.388 C273.000,158.459 247.928,133.384 217.000,133.384 C186.072,133.384 161.000,158.459 161.000,189.388 L161.000,309.399 "/>
<path fill-rule="evenodd"  fill="rgb(228, 196, 168)"
 d="M216.600,2.973 C185.009,2.973 159.400,28.584 159.400,60.178 C159.400,91.772 185.009,117.383 216.600,117.383 C248.191,117.383 273.800,91.772 273.800,60.178 C273.800,28.584 248.191,2.973 216.600,2.973 Z"/>
</svg>