<svg 
 xmlns="http://www.w3.org/2000/svg"
 xmlns:xlink="http://www.w3.org/1999/xlink"
 width="190px" height="190px">
<path fill-rule="evenodd"  fill="rgb(23, 44, 112)"
 d="M132.400,74.698 C115.977,74.698 132.411,74.698 75.200,74.698 C75.200,94.570 75.200,116.730 75.200,131.898 C75.200,163.488 100.809,189.098 132.400,189.098 C163.991,189.098 189.600,163.488 189.600,131.898 C189.600,100.307 163.991,74.698 132.400,74.698 Z"/>
<path fill-rule="evenodd"  fill="rgb(255, 128, 89)"
 d="M58.000,114.698 C74.423,114.698 57.989,114.698 115.200,114.698 C115.200,94.826 115.200,72.666 115.200,57.499 C115.200,25.907 89.591,0.298 58.000,0.298 C26.409,0.298 0.800,25.907 0.800,57.499 C0.800,89.089 26.409,114.698 58.000,114.698 Z"/>
</svg>