<svg 
 xmlns="http://www.w3.org/2000/svg"
 xmlns:xlink="http://www.w3.org/1999/xlink"
 width="660px" height="361px">
<path fill-rule="evenodd"  fill="rgb(190, 208, 226)"
 d="M369.763,353.890 C369.763,273.714 434.780,208.718 514.981,208.718 C595.183,208.718 660.000,273.824 660.000,354.000 "/>
<path fill-rule="evenodd"  fill="rgb(237, 135, 99)"
 d="M606.000,99.000 C606.000,243.485 489.334,360.178 344.804,360.178 C200.274,360.178 83.000,243.485 83.000,99.000 "/>
<path fill-rule="evenodd"  fill="rgb(116, 188, 215)"
 d="M0.000,354.000 C0.000,273.824 64.928,208.718 145.130,208.718 C225.331,208.718 290.000,273.824 290.000,354.000 "/>
<path fill-rule="evenodd"  fill="rgb(28, 45, 108)"
 d="M515.000,0.001 C561.551,0.001 599.692,37.778 599.692,84.338 C599.692,130.899 561.551,169.000 515.000,169.000 "/>
<path fill-rule="evenodd"  fill="rgb(222, 197, 172)"
 d="M573.000,66.001 C573.000,110.823 536.789,147.116 491.975,147.116 C447.160,147.116 411.000,110.823 411.000,66.001 "/>
</svg>