<svg 
 xmlns="http://www.w3.org/2000/svg"
 xmlns:xlink="http://www.w3.org/1999/xlink"
 width="757px" height="413px">
<path fill-rule="evenodd"  fill="rgb(185, 209, 228)"
 d="M423.700,406.150 C423.700,314.352 498.405,239.546 590.232,239.546 C682.059,239.546 756.500,314.352 756.500,406.150 "/>
<path fill-rule="evenodd"  fill="rgb(255, 128, 89)"
 d="M694.900,113.350 C694.900,278.779 560.867,412.961 395.387,412.961 C229.906,412.961 95.700,278.779 95.700,113.350 "/>
<path fill-rule="evenodd"  fill="rgb(85, 190, 218)"
 d="M0.500,406.150 C0.500,314.352 74.941,239.546 166.768,239.546 C258.595,239.546 333.300,314.352 333.300,406.150 "/>
<path fill-rule="evenodd"  fill="rgb(23, 44, 112)"
 d="M590.900,0.550 C644.199,0.550 687.222,43.827 687.222,97.136 C687.222,150.446 644.199,193.350 590.900,193.350 "/>
<path fill-rule="evenodd"  fill="rgb(228, 196, 168)"
 d="M656.500,75.750 C656.500,127.071 615.201,169.014 563.890,169.014 C512.580,169.014 470.900,127.071 470.900,75.750 "/>
</svg>