<svg 
 xmlns="http://www.w3.org/2000/svg"
 xmlns:xlink="http://www.w3.org/1999/xlink"
 width="27px" height="23px">
<path fill-rule="evenodd"  fill="rgb(28, 37, 40)"
 d="M24.498,3.946 L18.999,3.946 L18.999,2.867 C18.999,1.676 18.013,0.709 16.799,0.709 L10.200,0.709 C8.987,0.709 8.001,1.676 8.001,2.867 L8.001,3.946 L2.502,3.946 C1.288,3.946 0.302,4.914 0.302,6.104 L0.302,20.132 C0.302,21.322 1.288,22.289 2.502,22.289 L24.498,22.289 C25.712,22.289 26.698,21.322 26.698,20.132 L26.698,6.104 C26.698,4.914 25.712,3.946 24.498,3.946 ZM9.101,2.867 C9.101,2.272 9.594,1.788 10.200,1.788 L16.799,1.788 C17.406,1.788 17.899,2.272 17.899,2.867 L17.899,3.946 L9.101,3.946 L9.101,2.867 ZM25.598,20.132 C25.598,20.727 25.105,21.210 24.498,21.210 L2.502,21.210 C1.895,21.210 1.402,20.727 1.402,20.132 L1.402,12.278 C1.727,12.464 2.099,12.579 2.502,12.579 L11.300,12.579 L11.300,14.197 C11.300,14.495 11.546,14.736 11.850,14.736 L15.150,14.736 C15.454,14.736 15.700,14.495 15.700,14.197 L15.700,12.579 L24.498,12.579 C24.901,12.579 25.273,12.464 25.598,12.278 L25.598,20.132 L25.598,20.132 ZM12.400,13.657 L12.400,11.499 L14.600,11.499 L14.600,13.657 L12.400,13.657 ZM25.598,10.420 C25.598,11.015 25.105,11.499 24.498,11.499 L15.700,11.499 L15.700,10.959 C15.700,10.661 15.454,10.420 15.150,10.420 L11.850,10.420 C11.546,10.420 11.300,10.661 11.300,10.959 L11.300,11.499 L2.502,11.499 C1.895,11.499 1.402,11.015 1.402,10.420 L1.402,6.104 C1.402,5.509 1.895,5.026 2.502,5.026 L24.498,5.026 C25.105,5.026 25.598,5.509 25.598,6.104 L25.598,10.420 Z"/>
</svg>