<svg 
 xmlns="http://www.w3.org/2000/svg"
 xmlns:xlink="http://www.w3.org/1999/xlink"
 width="22px" height="23px">
<path fill-rule="evenodd"  fill="rgb(28, 37, 40)"
 d="M17.804,10.537 C17.176,12.902 15.345,14.781 13.009,15.478 L13.722,18.445 L16.276,18.445 L17.567,22.221 L4.433,22.221 L5.724,18.445 L8.277,18.445 L8.991,15.478 C6.655,14.781 4.824,12.902 4.196,10.537 C2.084,10.346 0.424,8.592 0.424,6.463 L0.424,2.372 L3.961,2.372 L3.961,0.777 L18.039,0.777 L18.039,2.372 L21.576,2.372 L21.576,6.463 C21.576,8.592 19.916,10.346 17.804,10.537 ZM3.961,3.631 L1.683,3.631 L1.683,6.463 C1.683,7.824 2.669,8.964 3.979,9.234 C3.944,9.198 3.967,3.846 3.961,3.631 ZM6.624,19.703 L6.194,20.962 L15.806,20.962 L15.376,19.703 L6.624,19.703 ZM12.427,18.445 L11.774,15.727 C11.267,15.784 10.733,15.784 10.226,15.727 L9.572,18.445 L12.427,18.445 ZM16.780,2.036 L5.220,2.036 L5.220,8.732 C5.536,16.396 16.462,16.399 16.780,8.732 L16.780,2.036 ZM20.317,3.631 L18.039,3.631 C18.030,3.957 18.060,9.051 18.021,9.234 C19.331,8.964 20.317,7.824 20.317,6.463 L20.317,3.631 ZM8.335,4.764 L13.665,4.764 L13.665,6.022 L8.335,6.022 L8.335,4.764 ZM12.910,8.540 L9.090,8.540 L9.090,7.281 L12.910,7.281 L12.910,8.540 Z"/>
</svg>