<svg 
 xmlns="http://www.w3.org/2000/svg"
 xmlns:xlink="http://www.w3.org/1999/xlink"
 width="24px" height="32px">
<path fill-rule="evenodd"  fill="rgb(28, 37, 40)"
 d="M22.251,16.352 C21.956,17.053 21.376,18.142 20.956,18.780 L13.276,30.447 C12.962,30.924 12.497,31.199 12.000,31.199 C11.503,31.199 11.038,30.924 10.724,30.447 L3.045,18.780 C2.626,18.142 2.045,17.053 1.750,16.352 C1.712,16.260 0.800,14.067 0.800,12.029 C0.800,5.837 5.824,0.799 12.000,0.799 C18.176,0.799 23.200,5.837 23.200,12.029 C23.200,14.068 22.289,16.261 22.251,16.352 ZM12.000,2.120 C6.551,2.120 2.118,6.565 2.118,12.029 C2.118,13.794 2.954,15.812 2.965,15.839 C3.228,16.468 3.769,17.481 4.145,18.053 L11.825,29.720 C11.976,29.950 12.024,29.950 12.176,29.720 L19.856,18.053 C20.232,17.481 20.773,16.468 21.036,15.840 C21.044,15.820 21.882,13.796 21.882,12.029 C21.882,6.565 17.449,2.120 12.000,2.120 ZM12.000,17.975 C8.730,17.975 6.071,15.307 6.071,12.030 C6.071,8.752 8.730,6.084 12.000,6.084 C15.270,6.084 17.929,8.752 17.929,12.030 C17.929,15.307 15.270,17.975 12.000,17.975 ZM12.000,7.405 C9.458,7.405 7.388,9.480 7.388,12.030 C7.388,14.579 9.458,16.654 12.000,16.654 C14.542,16.654 16.612,14.579 16.612,12.030 C16.612,9.480 14.542,7.405 12.000,7.405 Z"/>
</svg>