<svg 
 xmlns="http://www.w3.org/2000/svg"
 xmlns:xlink="http://www.w3.org/1999/xlink"
 width="25px" height="30px">
<path fill-rule="evenodd"  fill="rgb(28, 37, 40)"
 d="M12.500,0.599 C5.663,0.599 0.100,6.276 0.100,13.255 C0.100,14.029 0.100,20.011 0.100,20.117 C0.100,21.514 1.212,22.650 2.580,22.650 L3.549,22.650 C3.890,23.631 4.809,24.336 5.887,24.336 C7.254,24.336 8.367,23.200 8.367,21.805 L8.367,14.942 C8.367,13.547 7.254,12.411 5.887,12.411 C4.809,12.411 3.890,13.117 3.549,14.099 L2.580,14.099 C2.290,14.099 2.012,14.150 1.753,14.244 L1.753,13.255 C1.753,7.207 6.574,2.287 12.500,2.287 C18.426,2.287 23.247,7.207 23.247,13.255 L23.247,14.244 C22.988,14.150 22.710,14.099 22.420,14.099 L21.451,14.099 C21.110,13.117 20.191,12.411 19.113,12.411 C17.746,12.411 16.633,13.547 16.633,14.942 L16.633,21.805 C16.633,23.200 17.746,24.336 19.113,24.336 C19.364,24.336 19.605,24.298 19.833,24.228 C19.524,25.266 18.577,26.024 17.460,26.024 L14.838,26.024 C14.497,25.041 13.578,24.336 12.500,24.336 C11.132,24.336 10.020,25.472 10.020,26.868 C10.020,28.263 11.132,29.399 12.500,29.399 C13.578,29.399 14.497,28.693 14.838,27.712 L17.460,27.712 C19.739,27.712 21.593,25.820 21.593,23.493 L21.593,22.650 L22.420,22.650 C23.787,22.650 24.900,21.514 24.900,20.117 C24.900,20.013 24.900,14.028 24.900,13.255 C24.900,6.276 19.337,0.599 12.500,0.599 ZM5.060,14.942 C5.060,14.478 5.431,14.099 5.887,14.099 C6.342,14.099 6.713,14.478 6.713,14.942 L6.713,21.805 C6.713,22.271 6.342,22.650 5.887,22.650 C5.431,22.650 5.060,22.271 5.060,21.805 L5.060,14.942 ZM2.580,15.786 L3.407,15.786 L3.407,20.961 L2.580,20.961 C2.124,20.961 1.753,20.583 1.753,20.117 L1.753,16.630 C1.753,16.165 2.124,15.786 2.580,15.786 ZM12.500,27.712 C12.044,27.712 11.673,27.333 11.673,26.868 C11.673,26.403 12.044,26.024 12.500,26.024 C12.956,26.024 13.327,26.403 13.327,26.868 C13.327,27.333 12.956,27.712 12.500,27.712 ZM19.940,21.805 C19.940,22.271 19.569,22.650 19.113,22.650 C18.657,22.650 18.287,22.271 18.287,21.805 L18.287,14.942 C18.287,14.478 18.657,14.099 19.113,14.099 C19.569,14.099 19.940,14.478 19.940,14.942 L19.940,21.805 ZM23.247,20.117 C23.247,20.583 22.876,20.961 22.420,20.961 L21.593,20.961 L21.593,15.786 L22.420,15.786 C22.876,15.786 23.247,16.165 23.247,16.630 L23.247,20.117 Z"/>
</svg>