<svg 
 xmlns="http://www.w3.org/2000/svg"
 xmlns:xlink="http://www.w3.org/1999/xlink"
 width="28px" height="28px">
<path fill-rule="evenodd"  fill="rgb(28, 37, 40)"
 d="M5.904,18.480 C8.595,21.687 11.834,24.212 15.531,25.998 C16.939,26.664 18.821,27.452 20.918,27.588 C21.048,27.594 21.173,27.599 21.303,27.599 C22.710,27.599 23.841,27.115 24.763,26.117 C24.768,26.111 24.779,26.100 24.785,26.088 C25.113,25.694 25.486,25.339 25.876,24.961 C26.142,24.707 26.413,24.443 26.673,24.172 C27.877,22.921 27.877,21.331 26.662,20.120 L23.264,16.732 C22.688,16.135 21.998,15.819 21.275,15.819 C20.551,15.819 19.856,16.135 19.262,16.727 L17.238,18.744 C17.052,18.637 16.860,18.541 16.679,18.451 C16.453,18.338 16.244,18.232 16.057,18.113 C14.214,16.947 12.541,15.425 10.941,13.469 C10.133,12.449 9.590,11.592 9.211,10.719 C9.743,10.240 10.240,9.738 10.721,9.248 C10.890,9.073 11.065,8.899 11.241,8.724 C11.851,8.115 12.179,7.410 12.179,6.694 C12.179,5.979 11.857,5.274 11.241,4.666 L9.556,2.986 C9.358,2.789 9.172,2.597 8.980,2.400 C8.606,2.017 8.216,1.622 7.832,1.267 C7.250,0.698 6.566,0.399 5.842,0.399 C5.124,0.399 4.435,0.698 3.830,1.272 L1.716,3.380 C0.947,4.147 0.511,5.077 0.421,6.154 C0.314,7.501 0.562,8.932 1.207,10.662 C2.196,13.340 3.688,15.825 5.904,18.480 ZM1.800,6.272 C1.868,5.523 2.157,4.897 2.699,4.355 L4.802,2.259 C5.130,1.944 5.492,1.780 5.842,1.780 C6.187,1.780 6.537,1.944 6.860,2.270 C7.239,2.620 7.595,2.986 7.979,3.375 C8.171,3.572 8.369,3.769 8.567,3.972 L10.252,5.651 C10.602,6.001 10.783,6.356 10.783,6.706 C10.783,7.055 10.602,7.410 10.252,7.759 C10.076,7.934 9.901,8.115 9.726,8.290 C9.200,8.819 8.708,9.321 8.166,9.800 C8.154,9.811 8.149,9.817 8.137,9.829 C7.668,10.296 7.742,10.741 7.855,11.080 C7.860,11.097 7.866,11.107 7.872,11.125 C8.307,12.167 8.912,13.159 9.856,14.343 C11.552,16.428 13.338,18.045 15.305,19.291 C15.548,19.449 15.808,19.573 16.051,19.697 C16.278,19.810 16.487,19.917 16.673,20.035 C16.696,20.047 16.713,20.058 16.735,20.069 C16.922,20.165 17.103,20.210 17.284,20.210 C17.736,20.210 18.030,19.922 18.126,19.827 L20.240,17.719 C20.568,17.392 20.924,17.217 21.275,17.217 C21.704,17.217 22.055,17.482 22.275,17.719 L25.684,21.112 C26.362,21.788 26.357,22.521 25.667,23.236 C25.429,23.491 25.181,23.732 24.915,23.986 C24.519,24.369 24.107,24.764 23.734,25.209 C23.084,25.908 22.309,26.235 21.309,26.235 C21.212,26.235 21.111,26.229 21.015,26.223 C19.160,26.105 17.436,25.384 16.142,24.770 C12.626,23.073 9.539,20.666 6.978,17.612 C4.870,15.081 3.451,12.725 2.513,10.200 C1.930,8.651 1.710,7.405 1.800,6.272 Z"/>
</svg>