<svg 
 xmlns="http://www.w3.org/2000/svg"
 xmlns:xlink="http://www.w3.org/1999/xlink"
 width="41px" height="19px">
<path fill-rule="evenodd"  fill="rgb(28, 37, 40)"
 d="M39.568,2.247 C36.749,0.677 33.545,1.510 31.354,2.487 L24.824,5.397 L13.592,-0.001 L6.903,0.273 L16.178,9.258 L10.267,11.942 L4.117,9.705 L-0.000,11.539 L3.721,15.956 C3.328,16.403 2.972,17.034 3.295,17.698 C3.717,18.563 4.966,19.000 7.014,19.000 C7.434,19.000 7.887,18.981 8.374,18.944 C10.622,18.775 13.060,18.226 14.584,17.547 L37.928,7.145 C39.944,6.246 40.948,5.302 40.998,4.260 C41.024,3.719 40.797,2.931 39.568,2.247 ZM37.214,5.683 L13.870,16.085 C12.572,16.664 10.440,17.148 8.440,17.319 C6.395,17.496 5.302,17.275 4.937,17.088 C5.012,16.989 5.152,16.836 5.411,16.617 L6.017,16.108 L2.666,12.131 L4.184,11.454 L10.340,13.694 L19.047,9.741 L10.776,1.729 L13.226,1.628 L24.796,7.188 L32.067,3.949 C34.723,2.766 36.961,2.661 38.718,3.640 L38.718,3.640 C39.161,3.887 39.316,4.102 39.312,4.186 C39.312,4.192 39.261,4.770 37.214,5.683 Z"/>
</svg>