<svg xmlns="http://www.w3.org/2000/svg"
	xmlns:xlink="http://www.w3.org/1999/xlink" width="80px" height="80px">
	<path fill-rule="evenodd" fill="rgb(255, 255, 255)" d="M40.000,79.979 C17.914,79.979 0.015,62.083 0.015,40.004 C0.015,17.918 17.914,0.019 40.000,0.019 C62.084,0.019 79.985,17.918 79.985,40.004 C79.985,62.083 62.084,79.979 40.000,79.979 ZM40.000,6.692 C21.606,6.692 6.693,21.617 6.693,40.004 C6.693,58.401 21.606,73.305 40.000,73.305 C58.392,73.305 73.306,58.401 73.301,40.004 C73.301,21.615 58.392,6.692 40.000,6.692 ZM53.189,41.665 L36.584,53.726 C36.232,53.983 35.818,54.116 35.407,54.116 C35.094,54.116 34.782,54.043 34.497,53.898 C33.824,53.560 33.404,52.868 33.404,52.115 L33.404,27.979 C33.404,27.232 33.824,26.539 34.497,26.198 C35.165,25.855 35.975,25.922 36.584,26.363 L53.189,38.435 C53.706,38.813 54.023,39.406 54.018,40.049 C54.018,40.684 53.714,41.279 53.189,41.665 Z"/>
</svg>