<svg xmlns="http://www.w3.org/2000/svg"
	xmlns:xlink="http://www.w3.org/1999/xlink" width="58px" height="44px">
	<path fill-rule="evenodd" fill="rgb(28, 37, 40)" d="M58.000,43.998 L33.874,43.998 L33.874,25.931 C33.874,11.988 42.891,2.538 55.583,-0.001 L57.988,5.255 C52.110,7.498 48.333,14.149 48.333,19.554 L58.000,19.554 L58.000,43.998 ZM55.583,21.998 L45.917,21.998 L45.917,19.554 C45.917,14.262 49.010,7.496 54.795,4.095 L54.213,2.824 C43.106,5.769 36.291,14.475 36.291,25.931 L36.291,41.554 L55.583,41.554 L55.583,21.998 ZM14.500,19.554 L24.125,19.554 L24.125,43.998 L-0.000,43.998 L-0.000,25.931 C-0.000,11.988 9.058,2.538 21.750,-0.001 L24.157,5.255 C18.277,7.498 14.500,14.149 14.500,19.554 ZM20.380,2.820 C9.248,5.771 2.417,14.477 2.417,25.931 L2.417,41.554 L21.709,41.554 L21.709,21.998 L12.083,21.998 L12.083,19.554 C12.083,14.262 15.176,7.496 20.962,4.095 L20.380,2.820 Z"/>
</svg>