<svg 
 xmlns="http://www.w3.org/2000/svg"
 xmlns:xlink="http://www.w3.org/1999/xlink"
 width="48px" height="36px">
<path fill-rule="evenodd"  fill="rgb(28, 37, 40)"
 d="M47.200,35.598 L27.900,35.598 L27.900,21.145 C27.900,9.991 35.113,2.430 45.267,0.400 L47.190,4.605 C42.488,6.399 39.467,11.720 39.467,16.044 L47.200,16.044 L47.200,35.598 ZM45.267,17.999 L37.533,17.999 L37.533,16.044 C37.533,11.810 40.008,6.397 44.636,3.676 L44.170,2.659 C35.285,5.016 29.833,11.980 29.833,21.145 L29.833,33.644 L45.267,33.644 L45.267,17.999 ZM12.400,16.044 L20.100,16.044 L20.100,35.598 L0.800,35.598 L0.800,21.145 C0.800,9.991 8.046,2.430 18.200,0.400 L20.126,4.605 C15.422,6.399 12.400,11.720 12.400,16.044 ZM17.104,2.657 C8.199,5.018 2.733,11.982 2.733,21.145 L2.733,33.644 L18.167,33.644 L18.167,17.999 L10.467,17.999 L10.467,16.044 C10.467,11.810 12.941,6.397 17.570,3.676 L17.104,2.657 Z"/>
</svg>