<svg xmlns="http://www.w3.org/2000/svg"
	xmlns:xlink="http://www.w3.org/1999/xlink" width="34px" height="35px">
	<path fill-rule="evenodd" fill="rgb(255, 255, 255)" d="M33.469,31.879 L25.090,23.216 C27.245,20.669 28.425,17.466 28.425,14.131 C28.425,6.339 22.048,0.000 14.211,0.000 C6.373,0.000 -0.003,6.339 -0.003,14.131 C-0.003,21.922 6.373,28.261 14.211,28.261 C17.153,28.261 19.957,27.379 22.354,25.705 L30.797,34.434 C31.150,34.798 31.624,34.999 32.133,34.999 C32.615,34.999 33.071,34.817 33.418,34.485 C34.155,33.780 34.178,32.612 33.469,31.879 ZM14.211,3.686 C20.004,3.686 24.717,8.372 24.717,14.131 C24.717,19.890 20.004,24.575 14.211,24.575 C8.418,24.575 3.705,19.890 3.705,14.131 C3.705,8.372 8.418,3.686 14.211,3.686 Z"/>
</svg>