<svg 
 xmlns="http://www.w3.org/2000/svg"
 xmlns:xlink="http://www.w3.org/1999/xlink"
 width="22px" height="22px">
<path fill-rule="evenodd"  fill="rgb(28, 37, 40)"
 d="M11.000,21.373 C5.271,21.373 0.627,16.728 0.627,10.999 C0.627,5.270 5.271,0.626 11.000,0.626 C16.727,0.632 21.367,5.273 21.373,10.999 C21.373,16.728 16.729,21.373 11.000,21.373 ZM11.000,2.108 C6.089,2.108 2.108,6.088 2.108,10.999 C2.108,15.909 6.089,19.891 11.000,19.891 C15.908,19.886 19.886,15.907 19.891,10.999 C19.891,6.088 15.911,2.108 11.000,2.108 ZM14.705,10.999 C13.886,10.999 13.223,10.335 13.223,9.518 C13.223,8.699 13.886,8.035 14.705,8.035 C15.523,8.035 16.187,8.699 16.187,9.518 C16.187,10.335 15.523,10.999 14.705,10.999 ZM13.837,13.503 C14.082,13.831 14.015,14.296 13.687,14.540 C12.101,15.752 9.899,15.752 8.313,14.540 C8.299,14.530 8.285,14.519 8.272,14.507 C7.962,14.239 7.928,13.772 8.196,13.462 C8.463,13.152 8.931,13.118 9.241,13.386 C10.289,14.151 11.711,14.151 12.759,13.386 C12.772,13.374 12.786,13.364 12.800,13.352 C13.128,13.108 13.593,13.175 13.837,13.503 ZM7.295,10.999 C6.477,10.999 5.813,10.335 5.813,9.518 C5.813,8.699 6.477,8.035 7.295,8.035 C8.114,8.035 8.777,8.699 8.777,9.518 C8.777,10.335 8.114,10.999 7.295,10.999 Z"/>
</svg>