<svg 
 xmlns="http://www.w3.org/2000/svg"
 xmlns:xlink="http://www.w3.org/1999/xlink"
 width="23px" height="23px">
<path fill-rule="evenodd"  fill="rgb(28, 37, 40)"
 d="M22.457,13.076 C22.222,13.018 21.987,13.076 21.781,13.223 C21.017,13.874 20.135,14.406 19.165,14.760 C18.254,15.113 17.254,15.291 16.196,15.291 C13.815,15.291 11.640,14.316 10.082,12.751 C8.524,11.187 7.554,9.001 7.554,6.609 C7.554,5.604 7.730,4.631 8.024,3.745 C8.348,2.800 8.818,1.943 9.435,1.205 C9.700,0.880 9.641,0.408 9.318,0.142 C9.112,-0.006 8.877,-0.065 8.642,-0.006 C6.143,0.673 3.968,2.179 2.410,4.187 C0.911,6.166 -0.000,8.617 -0.000,11.305 C-0.000,14.524 1.293,17.447 3.410,19.574 C5.526,21.699 8.436,22.999 11.640,22.999 C14.344,22.999 16.843,22.053 18.841,20.489 C20.870,18.894 22.339,16.619 22.957,14.021 C23.104,13.579 22.868,13.165 22.457,13.076 ZM17.960,19.248 C16.255,20.607 14.080,21.433 11.699,21.433 C8.906,21.433 6.378,20.281 4.556,18.450 C2.733,16.619 1.587,14.081 1.587,11.276 C1.587,8.942 2.351,6.815 3.674,5.103 C4.585,3.922 5.732,2.947 7.054,2.267 C6.907,2.594 6.760,2.918 6.643,3.273 C6.261,4.335 6.084,5.457 6.084,6.638 C6.084,9.445 7.231,12.013 9.053,13.844 C10.876,15.675 13.433,16.827 16.225,16.827 C17.460,16.827 18.636,16.619 19.723,16.207 C20.105,16.058 20.487,15.912 20.840,15.734 C20.135,17.092 19.165,18.303 17.960,19.248 Z"/>
</svg>