<svg xmlns="http://www.w3.org/2000/svg"
	xmlns:xlink="http://www.w3.org/1999/xlink" width="19px" height="19px">
	<path fill-rule="evenodd" fill="rgb(28, 37, 40)" d="M18.265,10.761 C18.077,10.715 17.889,10.761 17.725,10.879 C17.113,11.399 16.408,11.825 15.632,12.108 C14.903,12.391 14.103,12.533 13.257,12.533 C11.352,12.533 9.612,11.753 8.366,10.501 C7.119,9.250 6.343,7.501 6.343,5.588 C6.343,4.783 6.484,4.004 6.720,3.296 C6.978,2.540 7.354,1.855 7.848,1.264 C8.060,1.004 8.013,0.626 7.754,0.413 C7.590,0.295 7.401,0.248 7.213,0.295 C5.215,0.838 3.474,2.043 2.228,3.650 C1.029,5.233 0.300,7.194 0.300,9.344 C0.300,11.919 1.335,14.258 3.028,15.959 C4.721,17.660 7.049,18.699 9.612,18.699 C11.775,18.699 13.774,17.943 15.373,16.691 C16.996,15.415 18.171,13.595 18.665,11.517 C18.783,11.163 18.595,10.832 18.265,10.761 ZM14.668,15.698 C13.304,16.785 11.564,17.447 9.659,17.447 C7.425,17.447 5.403,16.525 3.945,15.060 C2.487,13.595 1.570,11.564 1.570,9.321 C1.570,7.454 2.181,5.752 3.239,4.382 C3.968,3.438 4.885,2.658 5.944,2.114 C5.826,2.375 5.708,2.634 5.614,2.918 C5.309,3.768 5.168,4.666 5.168,5.610 C5.168,7.856 6.085,9.910 7.543,11.375 C9.000,12.840 11.046,13.762 13.280,13.762 C14.268,13.762 15.208,13.595 16.079,13.266 C16.384,13.147 16.690,13.029 16.972,12.887 C16.408,13.974 15.632,14.943 14.668,15.698 Z"/>
</svg>