<svg 
 xmlns="http://www.w3.org/2000/svg"
 xmlns:xlink="http://www.w3.org/1999/xlink"
 width="23px" height="23px">
<path fill-rule="evenodd"  fill="rgb(28, 37, 40)"
 d="M21.898,12.235 L19.635,12.235 C19.223,12.235 18.870,11.880 18.870,11.467 C18.870,11.054 19.223,10.699 19.635,10.699 L21.898,10.699 C22.309,10.699 22.662,11.054 22.662,11.467 C22.662,11.880 22.309,12.235 21.898,12.235 ZM17.812,6.270 C17.518,6.565 17.019,6.565 16.754,6.270 C16.460,5.974 16.460,5.501 16.754,5.207 L18.371,3.583 C18.665,3.287 19.135,3.287 19.429,3.583 C19.723,3.877 19.723,4.350 19.429,4.646 L17.812,6.270 ZM15.490,15.424 C14.491,16.457 13.080,17.077 11.552,17.077 C10.023,17.077 8.612,16.428 7.613,15.424 C6.614,14.420 5.967,13.003 5.967,11.467 C5.967,9.932 6.614,8.514 7.613,7.511 C8.612,6.476 10.023,5.856 11.552,5.856 C13.080,5.856 14.491,6.506 15.490,7.511 C16.519,8.514 17.136,9.932 17.136,11.467 C17.136,13.003 16.490,14.420 15.490,15.424 ZM14.432,8.573 C13.697,7.835 12.669,7.392 11.552,7.392 C10.435,7.392 9.406,7.835 8.671,8.573 C7.936,9.311 7.495,10.345 7.495,11.467 C7.495,12.589 7.936,13.623 8.671,14.361 C9.406,15.099 10.435,15.542 11.552,15.542 C12.669,15.542 13.697,15.099 14.432,14.361 C15.167,13.623 15.608,12.589 15.608,11.467 C15.608,10.345 15.167,9.311 14.432,8.573 ZM11.552,4.114 C11.140,4.114 10.787,3.759 10.787,3.346 L10.787,1.072 C10.787,0.659 11.140,0.305 11.552,0.305 C11.963,0.305 12.316,0.659 12.316,1.072 L12.316,3.346 C12.316,3.759 11.963,4.114 11.552,4.114 ZM5.291,6.270 L3.674,4.646 C3.381,4.350 3.381,3.877 3.674,3.583 C3.968,3.287 4.439,3.287 4.733,3.583 L6.349,5.207 C6.643,5.501 6.643,5.974 6.349,6.270 C6.055,6.565 5.585,6.565 5.291,6.270 ZM4.233,11.467 C4.233,11.880 3.880,12.235 3.469,12.235 L1.205,12.235 C0.765,12.235 0.441,11.880 0.441,11.467 C0.441,11.054 0.794,10.699 1.205,10.699 L3.469,10.699 C3.880,10.699 4.233,11.054 4.233,11.467 ZM5.291,16.664 C5.585,16.369 6.085,16.369 6.349,16.664 C6.643,16.959 6.643,17.432 6.349,17.727 L4.733,19.352 C4.439,19.646 3.968,19.646 3.674,19.352 C3.381,19.056 3.381,18.584 3.674,18.288 L5.291,16.664 ZM11.552,18.819 C11.963,18.819 12.316,19.173 12.316,19.588 L12.316,21.862 C12.316,22.275 11.963,22.629 11.552,22.629 C11.140,22.629 10.787,22.275 10.787,21.862 L10.787,19.588 C10.787,19.173 11.140,18.819 11.552,18.819 ZM17.783,16.664 L19.399,18.288 C19.693,18.584 19.693,19.056 19.399,19.352 C19.106,19.646 18.635,19.646 18.341,19.352 L16.725,17.727 C16.431,17.432 16.431,16.959 16.725,16.664 C17.019,16.369 17.518,16.369 17.783,16.664 Z"/>
</svg>